# xmcd
#
# Track frame offsets: 
#        150
#        41682
#        72423
#        91120
#        169139
#        204371
#
# Disc length: 3112 seconds
#
# Revision: 0
# Processed by: cddbd v1.5.2PL0 Copyright (c) Steve Scherf et al.
# Submitted via: ExactAudioCopy v0.95a5
#
DISCID=4a0c2606
DTITLE=Jan Ga³ach, Irek Glyk, Michal Kielak, Mirek Rzepa, Krzysztof Sc
DTITLE=ieranski, Leszek Winder - Czarny Pies
DYEAR=2016
DGENRE=Blues
TTITLE0=Jacky 2016
TTITLE1=BVad Home
TTITLE2=Ontario
TTITLE3=The Number Zero
TTITLE4=Majowa Maszynka
TTITLE5=Wit
EXTD=
EXTT0=
EXTT1=
EXTT2=
EXTT3=
EXTT4=
EXTT5=
PLAYORDER=
